<svg id="Layer_1" data-name="Layer 1" xmlns="http://www.w3.org/2000/svg" viewBox="0 0 246.9 76.9"><defs><style>.cls-1{fill:#77bf4b;}.cls-2{fill:#58595b;}.cls-3{fill:#808285;}</style></defs><title>Logo_Workboard_v2</title><path class="cls-1" d="M104.52,21.25a17,17,0,0,1,17.14,17.19,17.15,17.15,0,1,1-34.28,0A17,17,0,0,1,104.52,21.25Zm0,31.75c7.57,0,13.69-6.32,13.69-14.56a13.7,13.7,0,1,0-27.39,0C90.82,46.67,96.9,53,104.52,53Z"/><path class="cls-1" d="M138.7,21.82h10.87c10.1,0,16.9,6.18,16.9,16.81s-6.8,16.85-16.9,16.85H138.7Zm10.53,30.69c8.28,0,13.79-4.88,13.79-13.89s-5.55-13.84-13.79-13.84H142V52.51Z"/><path class="cls-1" d="M183.7,21.82h19v3H187V37h12.79v3H187v12.5h16.52v3H183.7Z"/><path class="cls-1" d="M220.62,21.82h3.21L241,46.05c1.15,1.68,2.78,4.55,2.78,4.55h.1s-.29-2.78-.29-4.55V21.82h3.3V55.48H243.7L226.51,31.25c-1.15-1.68-2.78-4.55-2.78-4.55h-.1s.29,2.78.29,4.55V55.48h-3.3Z"/><path class="cls-2" d="M59.16,56.06h-.07l-28.77-.18A1.83,1.83,0,0,1,28.51,54a1.85,1.85,0,0,1,1.84-1.81l28.76.18h0a8,8,0,0,0,8-7.93L67.21,33a8,8,0,0,0-7.93-8H48.19a1.83,1.83,0,0,1,0-3.65H59.3A11.63,11.63,0,0,1,70.86,33l-.07,11.5A11.64,11.64,0,0,1,59.16,56.06Z"/><polygon class="cls-2" points="31.97 48.6 22.47 54.01 31.9 59.53 31.97 48.6"/><path class="cls-3" d="M21.53,76.9a11.56,11.56,0,0,1-5.86-1.6L5.75,69.49A11.64,11.64,0,0,1,1.59,53.58L16.13,28.76a1.83,1.83,0,1,1,3.15,1.85L4.74,55.42A8,8,0,0,0,7.6,66.34l9.92,5.81A8,8,0,0,0,28.43,69.3l5.25-9a1.83,1.83,0,1,1,3.15,1.85l-5.25,9a11.55,11.55,0,0,1-7.09,5.37A11.66,11.66,0,0,1,21.53,76.9Z"/><polygon class="cls-3" points="21.61 33.82 21.68 22.89 12.18 28.3 21.61 33.82"/><path class="cls-1" d="M44.63,33.61A1.82,1.82,0,0,1,43,32.68l-14.23-25a8,8,0,0,0-10.88-3l-10,5.69A8,8,0,0,0,5,21.26l5,8.71a1.83,1.83,0,0,1-3.17,1.81l-5-8.71A11.64,11.64,0,0,1,6.14,7.21l10-5.69A11.64,11.64,0,0,1,32,5.87l14.23,25a1.83,1.83,0,0,1-1.58,2.73Z"/><polygon class="cls-1" points="48.59 27.69 48.52 38.61 39.09 33.09 48.59 27.69"/><path class="cls-2" d="M51.46,70.91a2.41,2.41,0,0,1-1.12-.27,2.83,2.83,0,0,1-.92-.73,3.83,3.83,0,0,1,0-4.77,2.76,2.76,0,0,1,.92-.74,2.52,2.52,0,0,1,2.25,0,2.77,2.77,0,0,1,.92.74,3.83,3.83,0,0,1,0,4.77,2.83,2.83,0,0,1-.92.73A2.41,2.41,0,0,1,51.46,70.91Zm-1.87-1.16a2.35,2.35,0,0,0,3.74,0,3.62,3.62,0,0,0,0-4.48,2.36,2.36,0,0,0-3.74,0,3.63,3.63,0,0,0,0,4.48Z"/><path class="cls-2" d="M61.63,66.48A2.6,2.6,0,0,1,58,70.15a2.46,2.46,0,0,1-.53-.77v3.26H57.2V65.72h.23v1.54a2.43,2.43,0,0,1,.53-.78,2.6,2.6,0,0,1,3.67,0Zm-1.84,4.19A2.37,2.37,0,1,0,58.12,70,2.28,2.28,0,0,0,59.79,70.68Z"/><path class="cls-2" d="M70.34,68.13h-4.9a1.44,1.44,0,0,0,0,.18,2.37,2.37,0,0,0,2.36,2.36A2.4,2.4,0,0,0,69,70.34a2.27,2.27,0,0,0,.88-.9h.24a2.87,2.87,0,0,1-1,1.05,2.47,2.47,0,0,1-1.35.42,2.6,2.6,0,1,1,2.58-2.77Zm-2.55-2.19a2.27,2.27,0,0,0-1.52.56,2.33,2.33,0,0,0-.81,1.4h4.67a2.38,2.38,0,0,0-2.34-2Z"/><path class="cls-2" d="M77.8,67.67v3.24h-.21V67.68a1.52,1.52,0,0,0-.6-1.2,2.17,2.17,0,0,0-1.44-.5,2,2,0,0,0-1.35.47,1.58,1.58,0,0,0-.59,1.15v3.31h-.23V65.72h.23v1.09a1.72,1.72,0,0,1,.4-.5,2.25,2.25,0,0,1,1.54-.56,2.39,2.39,0,0,1,1.59.56A1.73,1.73,0,0,1,77.8,67.67Z"/><path class="cls-2" d="M86.09,64.12h.22v6.79h-.22V69.36a2.44,2.44,0,0,1-.54.79,2.59,2.59,0,1,1,0-3.67,2.45,2.45,0,0,1,.54.79Zm-2.38,6.56A2.37,2.37,0,1,0,82,70,2.28,2.28,0,0,0,83.72,70.68Z"/><path class="cls-2" d="M94.7,70.91V69.38a2.46,2.46,0,0,1-.53.77,2.59,2.59,0,1,1,0-3.67,2.63,2.63,0,0,1,.53.78V65.72h.22v5.19Zm0-2.58v0a2.38,2.38,0,0,0-2.37-2.36,2.37,2.37,0,1,0,2.37,2.39Z"/><path class="cls-2" d="M100.93,70.68a2.37,2.37,0,0,0,1.35-.4,2.17,2.17,0,0,0,.85-1.1h.23a2.61,2.61,0,0,1-.93,1.26,2.6,2.6,0,0,1-4.1-2V64.12h.23v1.49h3.24v.23H98.57v2.48a2.37,2.37,0,0,0,2.36,2.36Z"/><path class="cls-2" d="M110.51,70.91V69.38a2.46,2.46,0,0,1-.53.77,2.59,2.59,0,1,1,0-3.67,2.63,2.63,0,0,1,.53.78V65.72h.22v5.19Zm0-2.58v0a2.38,2.38,0,0,0-2.37-2.36,2.37,2.37,0,1,0,2.37,2.39Z"/><path class="cls-2" d="M124.41,67.48v.07a7.13,7.13,0,0,1-.1,1.12,3.25,3.25,0,0,1-.26.85,2.35,2.35,0,0,1-.41.6,1.89,1.89,0,0,1-.55.4,3.46,3.46,0,0,1-.66.24,4.37,4.37,0,0,1-.77.12l-.86,0h-1.68V64.12h.14q1.82,0,2.1,0a3.65,3.65,0,0,1,2.15.64,3.47,3.47,0,0,1,.9,2.7Zm-5.05,3.2H120a11.36,11.36,0,0,0,2.21-.12,2.17,2.17,0,0,0,1.67-1.24,4.47,4.47,0,0,0,.32-1.81,5.44,5.44,0,0,0-.12-1.19,2.91,2.91,0,0,0-.32-.85,2,2,0,0,0-.5-.57,2.24,2.24,0,0,0-.65-.34,4.17,4.17,0,0,0-.79-.17,8.79,8.79,0,0,0-.88-.06h-1.59Z"/><path class="cls-2" d="M132.88,68.13H128a1.44,1.44,0,0,0,0,.18,2.37,2.37,0,0,0,2.36,2.36,2.4,2.4,0,0,0,1.22-.33,2.27,2.27,0,0,0,.88-.9h.24a2.87,2.87,0,0,1-1,1.05,2.47,2.47,0,0,1-1.35.42,2.6,2.6,0,1,1,2.58-2.77Zm-2.55-2.19a2.27,2.27,0,0,0-1.52.56,2.33,2.33,0,0,0-.81,1.4h4.67a2.38,2.38,0,0,0-2.34-2Z"/><path class="cls-2" d="M140.44,65.72l-2.23,5.19H138l-2.23-5.19H136l1.62,3.77.09.21.42,1,.42-1,.08-.21,1.63-3.77Z"/><path class="cls-2" d="M148.64,68.13h-4.9a1.44,1.44,0,0,0,0,.18,2.37,2.37,0,0,0,2.36,2.36,2.4,2.4,0,0,0,1.22-.33,2.27,2.27,0,0,0,.88-.9h.24a2.87,2.87,0,0,1-1,1.05,2.47,2.47,0,0,1-1.35.42,2.6,2.6,0,1,1,2.58-2.77Zm-2.55-2.19a2.27,2.27,0,0,0-1.52.56,2.33,2.33,0,0,0-.81,1.4h4.67a2.38,2.38,0,0,0-2.34-2Z"/><path class="cls-2" d="M151.9,70.68v.23h-.23V64.12h.23v6.56Z"/><path class="cls-2" d="M158.55,70.91a2.58,2.58,0,1,1,1.84-.76A2.5,2.5,0,0,1,158.55,70.91Zm1.68-.93a2.36,2.36,0,1,0-1.68.69A2.27,2.27,0,0,0,160.22,70Z"/><path class="cls-2" d="M168.31,66.48a2.6,2.6,0,0,1-3.67,3.67,2.46,2.46,0,0,1-.53-.77v3.26h-.23V65.72h.23v1.54a2.43,2.43,0,0,1,.53-.78,2.6,2.6,0,0,1,3.67,0Zm-1.84,4.19A2.37,2.37,0,1,0,164.8,70,2.28,2.28,0,0,0,166.47,70.68Z"/><path class="cls-2" d="M177,68.13h-4.9a1.44,1.44,0,0,0,0,.18,2.37,2.37,0,0,0,2.36,2.36,2.4,2.4,0,0,0,1.22-.33,2.27,2.27,0,0,0,.88-.9h.24a2.87,2.87,0,0,1-1,1.05,2.47,2.47,0,0,1-1.35.42A2.6,2.6,0,1,1,177,68.13Zm-2.55-2.19a2.27,2.27,0,0,0-1.52.56,2.33,2.33,0,0,0-.81,1.4h4.67a2.38,2.38,0,0,0-2.34-2Z"/><path class="cls-2" d="M182.65,65.72a2.78,2.78,0,0,1,.58.06,3.38,3.38,0,0,1,.66.23,2.05,2.05,0,0,1,.69.53,2.86,2.86,0,0,1,.52.9h-.24a2.16,2.16,0,0,0-.85-1.1,2.38,2.38,0,0,0-1.35-.4,2.37,2.37,0,0,0-2.36,2.37v2.59h-.23v-2.7h0V65.72h.23v1.54a2.54,2.54,0,0,1,2.36-1.54Z"/><path class="cls-2" d="M197.16,64.12h.23v6.79h-.27L193,64.46v6.45h-.23V64.12H193l4.12,6.44Z"/><path class="cls-2" d="M205.83,68.13h-4.9a1.44,1.44,0,0,0,0,.18,2.37,2.37,0,0,0,2.36,2.36,2.4,2.4,0,0,0,1.22-.33,2.27,2.27,0,0,0,.88-.9h.24a2.87,2.87,0,0,1-1,1.05,2.47,2.47,0,0,1-1.35.42,2.6,2.6,0,1,1,2.58-2.77Zm-2.55-2.19a2.27,2.27,0,0,0-1.52.56,2.33,2.33,0,0,0-.81,1.4h4.67a2.38,2.38,0,0,0-2.34-2Z"/><path class="cls-2" d="M211.62,70.68a2.37,2.37,0,0,0,1.35-.4,2.17,2.17,0,0,0,.85-1.1h.23a2.61,2.61,0,0,1-.93,1.26,2.6,2.6,0,0,1-4.1-2V64.12h.23v1.49h3.24v.23h-3.24v2.48a2.37,2.37,0,0,0,2.36,2.36Z"/><path class="cls-2" d="M223.44,65.72h.22l-2.23,5.19h-.22L220,68l-1.26,2.91h-.22l-2.23-5.19h.21l1.62,3.77.09.21.42,1,.42-1,.08-.21.75-1.75h.22l.75,1.75.08.21.42,1,.42-1,.09-.21Z"/><path class="cls-2" d="M229.18,70.91a2.58,2.58,0,1,1,1.84-.76A2.5,2.5,0,0,1,229.18,70.91Zm1.68-.93a2.36,2.36,0,1,0-1.68.69A2.27,2.27,0,0,0,230.86,70Z"/><path class="cls-2" d="M237.1,65.72a2.78,2.78,0,0,1,.58.06,3.38,3.38,0,0,1,.66.23,2.05,2.05,0,0,1,.69.53,2.86,2.86,0,0,1,.52.9h-.24a2.16,2.16,0,0,0-.85-1.1,2.38,2.38,0,0,0-1.35-.4,2.37,2.37,0,0,0-2.36,2.37v2.59h-.23v-2.7h0V65.72h.23v1.54a2.54,2.54,0,0,1,2.36-1.54Z"/><path class="cls-2" d="M243.11,67.74l3.8,3.17h-.28l-3.69-3-.63.53v2.51h-.23V64.12h.23v4l3-2.39h.28Z"/><path class="cls-2" d="M51.46,70.91a2.41,2.41,0,0,1-1.12-.27,2.83,2.83,0,0,1-.92-.73,3.83,3.83,0,0,1,0-4.77,2.76,2.76,0,0,1,.92-.74,2.52,2.52,0,0,1,2.25,0,2.77,2.77,0,0,1,.92.74,3.83,3.83,0,0,1,0,4.77,2.83,2.83,0,0,1-.92.73A2.41,2.41,0,0,1,51.46,70.91Zm-1.87-1.16a2.35,2.35,0,0,0,3.74,0,3.62,3.62,0,0,0,0-4.48,2.36,2.36,0,0,0-3.74,0,3.63,3.63,0,0,0,0,4.48Z"/><path class="cls-2" d="M61.63,66.48A2.6,2.6,0,0,1,58,70.15a2.46,2.46,0,0,1-.53-.77v3.26H57.2V65.72h.23v1.54a2.43,2.43,0,0,1,.53-.78,2.6,2.6,0,0,1,3.67,0Zm-1.84,4.19A2.37,2.37,0,1,0,58.12,70,2.28,2.28,0,0,0,59.79,70.68Z"/><path class="cls-2" d="M70.34,68.13h-4.9a1.44,1.44,0,0,0,0,.18,2.37,2.37,0,0,0,2.36,2.36A2.4,2.4,0,0,0,69,70.34a2.27,2.27,0,0,0,.88-.9h.24a2.87,2.87,0,0,1-1,1.05,2.47,2.47,0,0,1-1.35.42,2.6,2.6,0,1,1,2.58-2.77Zm-2.55-2.19a2.27,2.27,0,0,0-1.52.56,2.33,2.33,0,0,0-.81,1.4h4.67a2.38,2.38,0,0,0-2.34-2Z"/><path class="cls-2" d="M77.8,67.67v3.24h-.21V67.68a1.52,1.52,0,0,0-.6-1.2,2.17,2.17,0,0,0-1.44-.5,2,2,0,0,0-1.35.47,1.58,1.58,0,0,0-.59,1.15v3.31h-.23V65.72h.23v1.09a1.72,1.72,0,0,1,.4-.5,2.25,2.25,0,0,1,1.54-.56,2.39,2.39,0,0,1,1.59.56A1.73,1.73,0,0,1,77.8,67.67Z"/><path class="cls-2" d="M86.09,64.12h.22v6.79h-.22V69.36a2.44,2.44,0,0,1-.54.79,2.59,2.59,0,1,1,0-3.67,2.45,2.45,0,0,1,.54.79Zm-2.38,6.56A2.37,2.37,0,1,0,82,70,2.28,2.28,0,0,0,83.72,70.68Z"/><path class="cls-2" d="M94.7,70.91V69.38a2.46,2.46,0,0,1-.53.77,2.59,2.59,0,1,1,0-3.67,2.63,2.63,0,0,1,.53.78V65.72h.22v5.19Zm0-2.58v0a2.38,2.38,0,0,0-2.37-2.36,2.37,2.37,0,1,0,2.37,2.39Z"/><path class="cls-2" d="M100.93,70.68a2.37,2.37,0,0,0,1.35-.4,2.17,2.17,0,0,0,.85-1.1h.23a2.61,2.61,0,0,1-.93,1.26,2.6,2.6,0,0,1-4.1-2V64.12h.23v1.49h3.24v.23H98.57v2.48a2.37,2.37,0,0,0,2.36,2.36Z"/><path class="cls-2" d="M110.51,70.91V69.38a2.46,2.46,0,0,1-.53.77,2.59,2.59,0,1,1,0-3.67,2.63,2.63,0,0,1,.53.78V65.72h.22v5.19Zm0-2.58v0a2.38,2.38,0,0,0-2.37-2.36,2.37,2.37,0,1,0,2.37,2.39Z"/><path class="cls-2" d="M124.41,67.48v.07a7.13,7.13,0,0,1-.1,1.12,3.25,3.25,0,0,1-.26.85,2.35,2.35,0,0,1-.41.6,1.89,1.89,0,0,1-.55.4,3.46,3.46,0,0,1-.66.24,4.37,4.37,0,0,1-.77.12l-.86,0h-1.68V64.12h.14q1.82,0,2.1,0a3.65,3.65,0,0,1,2.15.64,3.47,3.47,0,0,1,.9,2.7Zm-5.05,3.2H120a11.36,11.36,0,0,0,2.21-.12,2.17,2.17,0,0,0,1.67-1.24,4.47,4.47,0,0,0,.32-1.81,5.44,5.44,0,0,0-.12-1.19,2.91,2.91,0,0,0-.32-.85,2,2,0,0,0-.5-.57,2.24,2.24,0,0,0-.65-.34,4.17,4.17,0,0,0-.79-.17,8.79,8.79,0,0,0-.88-.06h-1.59Z"/><path class="cls-2" d="M132.88,68.13H128a1.44,1.44,0,0,0,0,.18,2.37,2.37,0,0,0,2.36,2.36,2.4,2.4,0,0,0,1.22-.33,2.27,2.27,0,0,0,.88-.9h.24a2.87,2.87,0,0,1-1,1.05,2.47,2.47,0,0,1-1.35.42,2.6,2.6,0,1,1,2.58-2.77Zm-2.55-2.19a2.27,2.27,0,0,0-1.52.56,2.33,2.33,0,0,0-.81,1.4h4.67a2.38,2.38,0,0,0-2.34-2Z"/><path class="cls-2" d="M140.44,65.72l-2.23,5.19H138l-2.23-5.19H136l1.62,3.77.09.21.42,1,.42-1,.08-.21,1.63-3.77Z"/><path class="cls-2" d="M148.64,68.13h-4.9a1.44,1.44,0,0,0,0,.18,2.37,2.37,0,0,0,2.36,2.36,2.4,2.4,0,0,0,1.22-.33,2.27,2.27,0,0,0,.88-.9h.24a2.87,2.87,0,0,1-1,1.05,2.47,2.47,0,0,1-1.35.42,2.6,2.6,0,1,1,2.58-2.77Zm-2.55-2.19a2.27,2.27,0,0,0-1.52.56,2.33,2.33,0,0,0-.81,1.4h4.67a2.38,2.38,0,0,0-2.34-2Z"/><path class="cls-2" d="M151.9,70.68v.23h-.23V64.12h.23v6.56Z"/><path class="cls-2" d="M158.55,70.91a2.58,2.58,0,1,1,1.84-.76A2.5,2.5,0,0,1,158.55,70.91Zm1.68-.93a2.36,2.36,0,1,0-1.68.69A2.27,2.27,0,0,0,160.22,70Z"/><path class="cls-2" d="M168.31,66.48a2.6,2.6,0,0,1-3.67,3.67,2.46,2.46,0,0,1-.53-.77v3.26h-.23V65.72h.23v1.54a2.43,2.43,0,0,1,.53-.78,2.6,2.6,0,0,1,3.67,0Zm-1.84,4.19A2.37,2.37,0,1,0,164.8,70,2.28,2.28,0,0,0,166.47,70.68Z"/><path class="cls-2" d="M177,68.13h-4.9a1.44,1.44,0,0,0,0,.18,2.37,2.37,0,0,0,2.36,2.36,2.4,2.4,0,0,0,1.22-.33,2.27,2.27,0,0,0,.88-.9h.24a2.87,2.87,0,0,1-1,1.05,2.47,2.47,0,0,1-1.35.42A2.6,2.6,0,1,1,177,68.13Zm-2.55-2.19a2.27,2.27,0,0,0-1.52.56,2.33,2.33,0,0,0-.81,1.4h4.67a2.38,2.38,0,0,0-2.34-2Z"/><path class="cls-2" d="M182.65,65.72a2.78,2.78,0,0,1,.58.06,3.38,3.38,0,0,1,.66.23,2.05,2.05,0,0,1,.69.53,2.86,2.86,0,0,1,.52.9h-.24a2.16,2.16,0,0,0-.85-1.1,2.38,2.38,0,0,0-1.35-.4,2.37,2.37,0,0,0-2.36,2.37v2.59h-.23v-2.7h0V65.72h.23v1.54a2.54,2.54,0,0,1,2.36-1.54Z"/><path class="cls-2" d="M197.16,64.12h.23v6.79h-.27L193,64.46v6.45h-.23V64.12H193l4.12,6.44Z"/><path class="cls-2" d="M205.83,68.13h-4.9a1.44,1.44,0,0,0,0,.18,2.37,2.37,0,0,0,2.36,2.36,2.4,2.4,0,0,0,1.22-.33,2.27,2.27,0,0,0,.88-.9h.24a2.87,2.87,0,0,1-1,1.05,2.47,2.47,0,0,1-1.35.42,2.6,2.6,0,1,1,2.58-2.77Zm-2.55-2.19a2.27,2.27,0,0,0-1.52.56,2.33,2.33,0,0,0-.81,1.4h4.67a2.38,2.38,0,0,0-2.34-2Z"/><path class="cls-2" d="M211.62,70.68a2.37,2.37,0,0,0,1.35-.4,2.17,2.17,0,0,0,.85-1.1h.23a2.61,2.61,0,0,1-.93,1.26,2.6,2.6,0,0,1-4.1-2V64.12h.23v1.49h3.24v.23h-3.24v2.48a2.37,2.37,0,0,0,2.36,2.36Z"/><path class="cls-2" d="M223.44,65.72h.22l-2.23,5.19h-.22L220,68l-1.26,2.91h-.22l-2.23-5.19h.21l1.62,3.77.09.21.42,1,.42-1,.08-.21.75-1.75h.22l.75,1.75.08.21.42,1,.42-1,.09-.21Z"/><path class="cls-2" d="M229.18,70.91a2.58,2.58,0,1,1,1.84-.76A2.5,2.5,0,0,1,229.18,70.91Zm1.68-.93a2.36,2.36,0,1,0-1.68.69A2.27,2.27,0,0,0,230.86,70Z"/><path class="cls-2" d="M237.1,65.72a2.78,2.78,0,0,1,.58.06,3.38,3.38,0,0,1,.66.23,2.05,2.05,0,0,1,.69.53,2.86,2.86,0,0,1,.52.9h-.24a2.16,2.16,0,0,0-.85-1.1,2.38,2.38,0,0,0-1.35-.4,2.37,2.37,0,0,0-2.36,2.37v2.59h-.23v-2.7h0V65.72h.23v1.54a2.54,2.54,0,0,1,2.36-1.54Z"/><path class="cls-2" d="M243.11,67.74l3.8,3.17h-.28l-3.69-3-.63.53v2.51h-.23V64.12h.23v4l3-2.39h.28Z"/></svg>